# xmcd
#
# Track frame offsets:
#	150
#	19435
#	42620
#	63885
#	81745
#	106950
#	136645
#	160625
#	186865
#	242675
#	306750
#
# Disc length: 4662 seconds
#
# Revision: 1
# Processed by: cddbd v1.5.1PL2 Copyright (c) Steve Scherf et al.
# Submitted via: EasyCDDAExtractor 9.0.0.1
#
DISCID=9012340b
DTITLE=Blue Oyster Cult - Ribfest Dayton 17-08-02 Disc 1
DYEAR=2002
DGENRE=Hard Rock
TTITLE0=Starway To The Stars
TTITLE1=ETI
TTITLE2=Burning For You
TTITLE3=Harvester Of Eye
TTITLE4=Perfect Waters
TTITLE5=Buck's Boogie
TTITLE6=Joan Crawford
TTITLE7=Cities On Flame
TTITLE8=The Last Days Of May
TTITLE9=Godzilla
TTITLE10=(Don't Fear) The Reaper
EXTD=
EXTT0=
EXTT1=
EXTT2=
EXTT3=
EXTT4=
EXTT5=
EXTT6=
EXTT7=
EXTT8=
EXTT9=
EXTT10=
PLAYORDER=
